P2
# Created by GIMP version 2.10.6 PNM plug-in
12 7
255
237
237
237
237
84
84
84
84
237
237
237
84
237
237
237
84
134
183
183
183
84
237
237
134
237
84
237
84
134
183
183
183
183
84
237
183
237
237
84
134
134
237
183
183
237
84
237
217
237
237
84
134
134
183
183
217
183
84
237
237
237
237
237
84
134
84
84
183
84
237
237
237
237
237
237
237
84
237
237
84
237
237
237
237
